<mxfile host="app.diagrams.net" agent="Mozilla/5.0 (Windows NT 10.0; Win64; x64) AppleWebKit/537.36 (KHTML, like Gecko) Chrome/138.0.0.0 Safari/537.36 Edg/138.0.0.0" version="28.0.7">
  <diagram name="Seite-1" id="L4bUxuAsf7dDMZDWto3_">
    <mxGraphModel dx="1630" dy="868" grid="1" gridSize="10" guides="1" tooltips="1" connect="1" arrows="1" fold="1" page="1" pageScale="1" pageWidth="827" pageHeight="1169" math="0" shadow="0">
      <root>
        <mxCell id="0" />
        <mxCell id="1" parent="0" />
        <mxCell id="WBn_VWO-27Ut0OFVjwEX-31" style="edgeStyle=orthogonalEdgeStyle;rounded=0;orthogonalLoop=1;jettySize=auto;html=1;exitX=0.5;exitY=0;exitDx=0;exitDy=0;entryX=0.5;entryY=1;entryDx=0;entryDy=0;endArrow=none;endFill=0;" edge="1" parent="1" source="WBn_VWO-27Ut0OFVjwEX-1" target="WBn_VWO-27Ut0OFVjwEX-25">
          <mxGeometry relative="1" as="geometry" />
        </mxCell>
        <mxCell id="WBn_VWO-27Ut0OFVjwEX-1" value="Haustier" style="swimlane;fontStyle=1;align=center;verticalAlign=top;childLayout=stackLayout;horizontal=1;startSize=26;horizontalStack=0;resizeParent=1;resizeParentMax=0;resizeLast=0;collapsible=1;marginBottom=0;whiteSpace=wrap;html=1;" vertex="1" parent="1">
          <mxGeometry x="730" y="250" width="160" height="88" as="geometry" />
        </mxCell>
        <mxCell id="WBn_VWO-27Ut0OFVjwEX-2" value="Art: Hund&lt;div&gt;Name: Jazz&lt;/div&gt;&lt;div&gt;Geburtsdatum: 13.04.&lt;/div&gt;" style="text;strokeColor=none;fillColor=none;align=left;verticalAlign=top;spacingLeft=4;spacingRight=4;overflow=hidden;rotatable=0;points=[[0,0.5],[1,0.5]];portConstraint=eastwest;whiteSpace=wrap;html=1;" vertex="1" parent="WBn_VWO-27Ut0OFVjwEX-1">
          <mxGeometry y="26" width="160" height="54" as="geometry" />
        </mxCell>
        <mxCell id="WBn_VWO-27Ut0OFVjwEX-3" value="" style="line;strokeWidth=1;fillColor=none;align=left;verticalAlign=middle;spacingTop=-1;spacingLeft=3;spacingRight=3;rotatable=0;labelPosition=right;points=[];portConstraint=eastwest;strokeColor=inherit;" vertex="1" parent="WBn_VWO-27Ut0OFVjwEX-1">
          <mxGeometry y="80" width="160" height="8" as="geometry" />
        </mxCell>
        <mxCell id="WBn_VWO-27Ut0OFVjwEX-34" style="edgeStyle=orthogonalEdgeStyle;rounded=0;orthogonalLoop=1;jettySize=auto;html=1;exitX=0.5;exitY=0;exitDx=0;exitDy=0;entryX=0;entryY=0.25;entryDx=0;entryDy=0;endArrow=none;endFill=0;" edge="1" parent="1" source="WBn_VWO-27Ut0OFVjwEX-5" target="WBn_VWO-27Ut0OFVjwEX-1">
          <mxGeometry relative="1" as="geometry" />
        </mxCell>
        <mxCell id="WBn_VWO-27Ut0OFVjwEX-5" value="Tierarzt" style="swimlane;fontStyle=1;align=center;verticalAlign=top;childLayout=stackLayout;horizontal=1;startSize=26;horizontalStack=0;resizeParent=1;resizeParentMax=0;resizeLast=0;collapsible=1;marginBottom=0;whiteSpace=wrap;html=1;" vertex="1" parent="1">
          <mxGeometry x="610" y="460" width="160" height="68" as="geometry" />
        </mxCell>
        <mxCell id="WBn_VWO-27Ut0OFVjwEX-6" value="Name: Thorsten Ierlieb&lt;div&gt;Arztnummer: 123&lt;/div&gt;" style="text;strokeColor=none;fillColor=none;align=left;verticalAlign=top;spacingLeft=4;spacingRight=4;overflow=hidden;rotatable=0;points=[[0,0.5],[1,0.5]];portConstraint=eastwest;whiteSpace=wrap;html=1;" vertex="1" parent="WBn_VWO-27Ut0OFVjwEX-5">
          <mxGeometry y="26" width="160" height="34" as="geometry" />
        </mxCell>
        <mxCell id="WBn_VWO-27Ut0OFVjwEX-7" value="" style="line;strokeWidth=1;fillColor=none;align=left;verticalAlign=middle;spacingTop=-1;spacingLeft=3;spacingRight=3;rotatable=0;labelPosition=right;points=[];portConstraint=eastwest;strokeColor=inherit;" vertex="1" parent="WBn_VWO-27Ut0OFVjwEX-5">
          <mxGeometry y="60" width="160" height="8" as="geometry" />
        </mxCell>
        <mxCell id="WBn_VWO-27Ut0OFVjwEX-33" style="edgeStyle=orthogonalEdgeStyle;rounded=0;orthogonalLoop=1;jettySize=auto;html=1;exitX=0;exitY=0.25;exitDx=0;exitDy=0;entryX=1;entryY=0.25;entryDx=0;entryDy=0;endArrow=none;endFill=0;" edge="1" parent="1" source="WBn_VWO-27Ut0OFVjwEX-9" target="WBn_VWO-27Ut0OFVjwEX-5">
          <mxGeometry relative="1" as="geometry" />
        </mxCell>
        <mxCell id="WBn_VWO-27Ut0OFVjwEX-9" value="Behandlung" style="swimlane;fontStyle=1;align=center;verticalAlign=top;childLayout=stackLayout;horizontal=1;startSize=26;horizontalStack=0;resizeParent=1;resizeParentMax=0;resizeLast=0;collapsible=1;marginBottom=0;whiteSpace=wrap;html=1;" vertex="1" parent="1">
          <mxGeometry x="880" y="450" width="160" height="98" as="geometry" />
        </mxCell>
        <mxCell id="WBn_VWO-27Ut0OFVjwEX-10" value="Datum: 04.08.25&lt;div&gt;Behandlungsgrund: Verletzung am Bauch&lt;/div&gt;&lt;div&gt;Tierarzt: Thorsten Ierlieb&lt;/div&gt;" style="text;strokeColor=none;fillColor=none;align=left;verticalAlign=top;spacingLeft=4;spacingRight=4;overflow=hidden;rotatable=0;points=[[0,0.5],[1,0.5]];portConstraint=eastwest;whiteSpace=wrap;html=1;" vertex="1" parent="WBn_VWO-27Ut0OFVjwEX-9">
          <mxGeometry y="26" width="160" height="64" as="geometry" />
        </mxCell>
        <mxCell id="WBn_VWO-27Ut0OFVjwEX-11" value="" style="line;strokeWidth=1;fillColor=none;align=left;verticalAlign=middle;spacingTop=-1;spacingLeft=3;spacingRight=3;rotatable=0;labelPosition=right;points=[];portConstraint=eastwest;strokeColor=inherit;" vertex="1" parent="WBn_VWO-27Ut0OFVjwEX-9">
          <mxGeometry y="90" width="160" height="8" as="geometry" />
        </mxCell>
        <mxCell id="WBn_VWO-27Ut0OFVjwEX-36" style="edgeStyle=orthogonalEdgeStyle;rounded=0;orthogonalLoop=1;jettySize=auto;html=1;exitX=0;exitY=0.25;exitDx=0;exitDy=0;entryX=1;entryY=0.25;entryDx=0;entryDy=0;endArrow=none;endFill=0;" edge="1" parent="1" source="WBn_VWO-27Ut0OFVjwEX-13" target="WBn_VWO-27Ut0OFVjwEX-17">
          <mxGeometry relative="1" as="geometry" />
        </mxCell>
        <mxCell id="WBn_VWO-27Ut0OFVjwEX-13" value="Behandlung" style="swimlane;fontStyle=1;align=center;verticalAlign=top;childLayout=stackLayout;horizontal=1;startSize=26;horizontalStack=0;resizeParent=1;resizeParentMax=0;resizeLast=0;collapsible=1;marginBottom=0;whiteSpace=wrap;html=1;" vertex="1" parent="1">
          <mxGeometry x="290" y="450" width="160" height="98" as="geometry" />
        </mxCell>
        <mxCell id="WBn_VWO-27Ut0OFVjwEX-14" value="Datum: 04.08.25&lt;div&gt;Behandlungsgrund: Routineuntersuchung&lt;/div&gt;&lt;div&gt;Tierarzt: Thorsten Ierlieb&lt;/div&gt;" style="text;strokeColor=none;fillColor=none;align=left;verticalAlign=top;spacingLeft=4;spacingRight=4;overflow=hidden;rotatable=0;points=[[0,0.5],[1,0.5]];portConstraint=eastwest;whiteSpace=wrap;html=1;" vertex="1" parent="WBn_VWO-27Ut0OFVjwEX-13">
          <mxGeometry y="26" width="160" height="64" as="geometry" />
        </mxCell>
        <mxCell id="WBn_VWO-27Ut0OFVjwEX-15" value="" style="line;strokeWidth=1;fillColor=none;align=left;verticalAlign=middle;spacingTop=-1;spacingLeft=3;spacingRight=3;rotatable=0;labelPosition=right;points=[];portConstraint=eastwest;strokeColor=inherit;" vertex="1" parent="WBn_VWO-27Ut0OFVjwEX-13">
          <mxGeometry y="90" width="160" height="8" as="geometry" />
        </mxCell>
        <mxCell id="WBn_VWO-27Ut0OFVjwEX-37" style="edgeStyle=orthogonalEdgeStyle;rounded=0;orthogonalLoop=1;jettySize=auto;html=1;exitX=0.5;exitY=0;exitDx=0;exitDy=0;entryX=0;entryY=0.25;entryDx=0;entryDy=0;endArrow=none;endFill=0;" edge="1" parent="1" source="WBn_VWO-27Ut0OFVjwEX-17" target="WBn_VWO-27Ut0OFVjwEX-21">
          <mxGeometry relative="1" as="geometry" />
        </mxCell>
        <mxCell id="WBn_VWO-27Ut0OFVjwEX-17" value="Tierarzt" style="swimlane;fontStyle=1;align=center;verticalAlign=top;childLayout=stackLayout;horizontal=1;startSize=26;horizontalStack=0;resizeParent=1;resizeParentMax=0;resizeLast=0;collapsible=1;marginBottom=0;whiteSpace=wrap;html=1;" vertex="1" parent="1">
          <mxGeometry x="30" y="460" width="160" height="68" as="geometry" />
        </mxCell>
        <mxCell id="WBn_VWO-27Ut0OFVjwEX-18" value="Name: Thorsten Ierlieb&lt;div&gt;Arztnummer: 123&lt;/div&gt;" style="text;strokeColor=none;fillColor=none;align=left;verticalAlign=top;spacingLeft=4;spacingRight=4;overflow=hidden;rotatable=0;points=[[0,0.5],[1,0.5]];portConstraint=eastwest;whiteSpace=wrap;html=1;" vertex="1" parent="WBn_VWO-27Ut0OFVjwEX-17">
          <mxGeometry y="26" width="160" height="34" as="geometry" />
        </mxCell>
        <mxCell id="WBn_VWO-27Ut0OFVjwEX-19" value="" style="line;strokeWidth=1;fillColor=none;align=left;verticalAlign=middle;spacingTop=-1;spacingLeft=3;spacingRight=3;rotatable=0;labelPosition=right;points=[];portConstraint=eastwest;strokeColor=inherit;" vertex="1" parent="WBn_VWO-27Ut0OFVjwEX-17">
          <mxGeometry y="60" width="160" height="8" as="geometry" />
        </mxCell>
        <mxCell id="WBn_VWO-27Ut0OFVjwEX-35" style="edgeStyle=orthogonalEdgeStyle;rounded=0;orthogonalLoop=1;jettySize=auto;html=1;exitX=1;exitY=0.25;exitDx=0;exitDy=0;entryX=0.5;entryY=0;entryDx=0;entryDy=0;endArrow=none;endFill=0;" edge="1" parent="1" source="WBn_VWO-27Ut0OFVjwEX-21" target="WBn_VWO-27Ut0OFVjwEX-13">
          <mxGeometry relative="1" as="geometry" />
        </mxCell>
        <mxCell id="WBn_VWO-27Ut0OFVjwEX-21" value="Haustier" style="swimlane;fontStyle=1;align=center;verticalAlign=top;childLayout=stackLayout;horizontal=1;startSize=26;horizontalStack=0;resizeParent=1;resizeParentMax=0;resizeLast=0;collapsible=1;marginBottom=0;whiteSpace=wrap;html=1;" vertex="1" parent="1">
          <mxGeometry x="150" y="250" width="160" height="88" as="geometry" />
        </mxCell>
        <mxCell id="WBn_VWO-27Ut0OFVjwEX-22" value="Art: Katze&lt;div&gt;Name: Marley&lt;/div&gt;&lt;div&gt;Geburtsdatum: 27.08.2018&amp;nbsp;&lt;/div&gt;" style="text;strokeColor=none;fillColor=none;align=left;verticalAlign=top;spacingLeft=4;spacingRight=4;overflow=hidden;rotatable=0;points=[[0,0.5],[1,0.5]];portConstraint=eastwest;whiteSpace=wrap;html=1;" vertex="1" parent="WBn_VWO-27Ut0OFVjwEX-21">
          <mxGeometry y="26" width="160" height="54" as="geometry" />
        </mxCell>
        <mxCell id="WBn_VWO-27Ut0OFVjwEX-23" value="" style="line;strokeWidth=1;fillColor=none;align=left;verticalAlign=middle;spacingTop=-1;spacingLeft=3;spacingRight=3;rotatable=0;labelPosition=right;points=[];portConstraint=eastwest;strokeColor=inherit;" vertex="1" parent="WBn_VWO-27Ut0OFVjwEX-21">
          <mxGeometry y="80" width="160" height="8" as="geometry" />
        </mxCell>
        <mxCell id="WBn_VWO-27Ut0OFVjwEX-30" style="edgeStyle=orthogonalEdgeStyle;rounded=0;orthogonalLoop=1;jettySize=auto;html=1;exitX=0.5;exitY=1;exitDx=0;exitDy=0;endArrow=none;endFill=0;" edge="1" parent="1" source="WBn_VWO-27Ut0OFVjwEX-25" target="WBn_VWO-27Ut0OFVjwEX-21">
          <mxGeometry relative="1" as="geometry" />
        </mxCell>
        <mxCell id="WBn_VWO-27Ut0OFVjwEX-25" value="Besitzer" style="swimlane;fontStyle=1;align=center;verticalAlign=top;childLayout=stackLayout;horizontal=1;startSize=26;horizontalStack=0;resizeParent=1;resizeParentMax=0;resizeLast=0;collapsible=1;marginBottom=0;whiteSpace=wrap;html=1;" vertex="1" parent="1">
          <mxGeometry x="450" y="70" width="160" height="88" as="geometry" />
        </mxCell>
        <mxCell id="WBn_VWO-27Ut0OFVjwEX-26" value="name: Max Mustermann&lt;div&gt;Adresse: Musterstr. 1 12345 Musterstadt&lt;/div&gt;" style="text;strokeColor=none;fillColor=none;align=left;verticalAlign=top;spacingLeft=4;spacingRight=4;overflow=hidden;rotatable=0;points=[[0,0.5],[1,0.5]];portConstraint=eastwest;whiteSpace=wrap;html=1;" vertex="1" parent="WBn_VWO-27Ut0OFVjwEX-25">
          <mxGeometry y="26" width="160" height="54" as="geometry" />
        </mxCell>
        <mxCell id="WBn_VWO-27Ut0OFVjwEX-27" value="" style="line;strokeWidth=1;fillColor=none;align=left;verticalAlign=middle;spacingTop=-1;spacingLeft=3;spacingRight=3;rotatable=0;labelPosition=right;points=[];portConstraint=eastwest;strokeColor=inherit;" vertex="1" parent="WBn_VWO-27Ut0OFVjwEX-25">
          <mxGeometry y="80" width="160" height="8" as="geometry" />
        </mxCell>
        <mxCell id="WBn_VWO-27Ut0OFVjwEX-32" style="edgeStyle=orthogonalEdgeStyle;rounded=0;orthogonalLoop=1;jettySize=auto;html=1;exitX=1;exitY=0.5;exitDx=0;exitDy=0;entryX=0.5;entryY=0;entryDx=0;entryDy=0;endArrow=none;endFill=0;" edge="1" parent="1" source="WBn_VWO-27Ut0OFVjwEX-2" target="WBn_VWO-27Ut0OFVjwEX-9">
          <mxGeometry relative="1" as="geometry" />
        </mxCell>
      </root>
    </mxGraphModel>
  </diagram>
</mxfile>
